<svg width="28" height="28" viewBox="0 0 28 28" fill="none" xmlns="http://www.w3.org/2000/svg">
<circle cx="14" cy="14" r="14" fill="#F49E4C"/>
<g style="mix-blend-mode:hard-light" clip-path="url(#clip0_27_24)">
<path d="M10.5 10H8.49999C7.76054 10 7.03248 10.1822 6.38021 10.5306C5.72794 10.8789 5.17157 11.3826 4.76029 11.9972C4.34902 12.6117 4.09552 13.3181 4.02223 14.0539C3.94893 14.7897 4.05808 15.5323 4.34004 16.2159C4.622 16.8995 5.06807 17.503 5.6388 17.9732C6.20953 18.4434 6.88733 18.7657 7.61226 18.9116C8.33718 19.0574 9.08688 19.0224 9.79506 18.8096C10.5032 18.5968 11.1481 18.2128 11.6725 17.6915C12.4925 16.8765 14 14.5 14 14.5C14 14.5 15.503 12.134 16.316 11.32C16.839 10.7963 17.4832 10.4097 18.1913 10.1945C18.8995 9.97924 19.6498 9.942 20.3758 10.0861C21.1018 10.2301 21.781 10.551 22.3534 11.0203C22.9257 11.4897 23.3734 12.0929 23.6569 12.7766C23.9403 13.4603 24.0508 14.2034 23.9784 14.94C23.906 15.6766 23.6531 16.384 23.242 16.9995C22.8309 17.6149 22.2743 18.1195 21.6216 18.4685C20.9689 18.8174 20.2401 19 19.5 19H17.5" stroke="white" stroke-linecap="round" stroke-linejoin="round"/>
<path d="M19.5 17L17.5 19L19.5 21M8.5 8L10.5 10L8.5 12" stroke="white" stroke-linecap="round" stroke-linejoin="round"/>
</g>
<defs>
<clipPath id="clip0_27_24">
<rect width="22" height="15" fill="white" transform="translate(3 7)"/>
</clipPath>
</defs>
</svg>
